<svg width="144" height="224" viewBox="0 0 144 224" fill="none" xmlns="http://www.w3.org/2000/svg">
<g clip-path="url(#clip0_358_2)">
<rect width="144" height="224" fill="white"/>
<path d="M0 8C0 3.58172 3.58172 0 8 0H136C140.418 0 144 3.58172 144 8V216C144 220.418 140.418 224 136 224H8C3.58173 224 0 220.418 0 216V8Z" fill="#F8F8F8"/>
<path d="M73.0096 84C67.3414 89.5883 67.3052 98.4317 73.3304 104.032L81.5603 111.995L73.849 119.457C76.0216 121.569 77.5032 124.253 78.1089 127.175C78.7146 130.096 78.4175 133.125 77.2548 135.884L100.328 113.563C100.541 113.357 100.71 113.113 100.825 112.844C100.941 112.575 101 112.287 101 111.995C101 111.704 100.941 111.416 100.825 111.147C100.71 110.878 100.541 110.633 100.328 110.427L73.0096 84ZM68.7934 88.06L45.6717 110.43C45.4588 110.636 45.2898 110.88 45.1746 111.149C45.0593 111.418 45 111.706 45 111.998C45 112.289 45.0593 112.577 45.1746 112.846C45.2898 113.115 45.4588 113.36 45.6717 113.566C54.7892 122.36 63.8825 131.236 73 140C78.5356 134.638 78.7768 125.776 72.807 120.09L64.4373 111.995L72.1558 104.529C67.5295 99.967 66.4562 93.5037 68.7934 88.0623V88.06Z" fill="black"/>
<path d="M16.0028 8C14.3833 9.59667 14.3729 12.1233 16.0944 13.7233L18.4458 15.9987L16.2426 18.1307C16.8633 18.7341 17.2866 19.5009 17.4597 20.3356C17.6327 21.1702 17.5479 22.0357 17.2157 22.824L23.8081 16.4467C23.8689 16.3879 23.9172 16.318 23.9501 16.2411C23.983 16.1643 24 16.0819 24 15.9987C24 15.9155 23.983 15.8331 23.9501 15.7562C23.9172 15.6793 23.8689 15.6095 23.8081 15.5507L16.0028 8ZM14.7981 9.16L8.19193 15.5513C8.13108 15.6101 8.08281 15.68 8.04988 15.7569C8.01695 15.8337 8 15.9161 8 15.9993C8 16.0825 8.01695 16.1649 8.04988 16.2418C8.08281 16.3187 8.13108 16.3885 8.19193 16.4473C10.7969 18.96 13.395 21.496 16 24C17.5816 22.468 17.6505 19.936 15.9449 18.3113L13.5535 15.9987L15.7588 13.8653C14.437 12.562 14.1303 10.7153 14.7981 9.16067V9.16Z" fill="black"/>
<path d="M128.003 200C126.383 201.597 126.373 204.123 128.094 205.723L130.446 207.999L128.243 210.131C128.863 210.734 129.287 211.501 129.46 212.336C129.633 213.17 129.548 214.036 129.216 214.824L135.808 208.447C135.869 208.388 135.917 208.318 135.95 208.241C135.983 208.164 136 208.082 136 207.999C136 207.915 135.983 207.833 135.95 207.756C135.917 207.679 135.869 207.609 135.808 207.551L128.003 200ZM126.798 201.16L120.192 207.551C120.131 207.61 120.083 207.68 120.05 207.757C120.017 207.834 120 207.916 120 207.999C120 208.083 120.017 208.165 120.05 208.242C120.083 208.319 120.131 208.389 120.192 208.447C122.797 210.96 125.395 213.496 128 216C129.582 214.468 129.651 211.936 127.945 210.311L125.554 207.999L127.759 205.865C126.437 204.562 126.13 202.715 126.798 201.161V201.16Z" fill="black"/>
</g>
<defs>
<clipPath id="clip0_358_2">
<rect width="144" height="224" fill="white"/>
</clipPath>
</defs>
</svg>
